<?xml version="1.0" encoding="UTF-8" standalone="no"?>
<!DOCTYPE svg PUBLIC "-//W3C//DTD SVG 1.1//EN"
 "http://www.w3.org/Graphics/SVG/1.1/DTD/svg11.dtd">
<!-- Generated by graphviz version 7.0.5 (20221231.0122)
 -->
<!-- Title: snakemake_dag Pages: 1 -->
<svg width="200pt" height="188pt"
 viewBox="0.00 0.00 200.00 188.00" xmlns="http://www.w3.org/2000/svg" xmlns:xlink="http://www.w3.org/1999/xlink">
<g id="graph0" class="graph" transform="scale(1 1) rotate(0) translate(4 184)">
<title>snakemake_dag</title>
<polygon fill="white" stroke="none" points="-4,4 -4,-184 196,-184 196,4 -4,4"/>
<!-- 0 -->
<g id="node1" class="node">
<title>0</title>
<path fill="none" stroke="#56d8a9" stroke-width="2" d="M75,-36C75,-36 12,-36 12,-36 6,-36 0,-30 0,-24 0,-24 0,-12 0,-12 0,-6 6,0 12,0 12,0 75,0 75,0 81,0 87,-6 87,-12 87,-12 87,-24 87,-24 87,-30 81,-36 75,-36"/>
<text text-anchor="middle" x="43.5" y="-15.5" font-family="sans" font-size="10.00">samtools_index</text>
</g>
<!-- 1 -->
<g id="node2" class="node">
<title>1</title>
<path fill="none" stroke="#d85656" stroke-width="2" stroke-dasharray="5,2" d="M72,-108C72,-108 15,-108 15,-108 9,-108 3,-102 3,-96 3,-96 3,-84 3,-84 3,-78 9,-72 15,-72 15,-72 72,-72 72,-72 78,-72 84,-78 84,-84 84,-84 84,-96 84,-96 84,-102 78,-108 72,-108"/>
<text text-anchor="middle" x="43.5" y="-87.5" font-family="sans" font-size="10.00">samtools_sort</text>
</g>
<!-- 1&#45;&gt;0 -->
<g id="edge1" class="edge">
<title>1&#45;&gt;0</title>
<path fill="none" stroke="grey" stroke-width="2" d="M43.5,-71.34C43.5,-64.75 43.5,-57.08 43.5,-49.67"/>
<polygon fill="grey" stroke="grey" stroke-width="2" points="47,-49.93 43.5,-39.93 40,-49.93 47,-49.93"/>
</g>
<!-- 2 -->
<g id="node3" class="node">
<title>2</title>
<path fill="none" stroke="#afd856" stroke-width="2" stroke-dasharray="5,2" d="M62.5,-180C62.5,-180 24.5,-180 24.5,-180 18.5,-180 12.5,-174 12.5,-168 12.5,-168 12.5,-156 12.5,-156 12.5,-150 18.5,-144 24.5,-144 24.5,-144 62.5,-144 62.5,-144 68.5,-144 74.5,-150 74.5,-156 74.5,-156 74.5,-168 74.5,-168 74.5,-174 68.5,-180 62.5,-180"/>
<text text-anchor="middle" x="43.5" y="-165" font-family="sans" font-size="10.00">bwa_map</text>
<text text-anchor="middle" x="43.5" y="-154" font-family="sans" font-size="10.00">sample: A</text>
</g>
<!-- 2&#45;&gt;1 -->
<g id="edge2" class="edge">
<title>2&#45;&gt;1</title>
<path fill="none" stroke="grey" stroke-width="2" d="M43.5,-143.34C43.5,-136.75 43.5,-129.08 43.5,-121.67"/>
<polygon fill="grey" stroke="grey" stroke-width="2" points="47,-121.93 43.5,-111.93 40,-121.93 47,-121.93"/>
</g>
<!-- 3 -->
<g id="node4" class="node">
<title>3</title>
<path fill="none" stroke="#56d8a9" stroke-width="2" d="M180,-36C180,-36 117,-36 117,-36 111,-36 105,-30 105,-24 105,-24 105,-12 105,-12 105,-6 111,0 117,0 117,0 180,0 180,0 186,0 192,-6 192,-12 192,-12 192,-24 192,-24 192,-30 186,-36 180,-36"/>
<text text-anchor="middle" x="148.5" y="-15.5" font-family="sans" font-size="10.00">samtools_index</text>
</g>
<!-- 4 -->
<g id="node5" class="node">
<title>4</title>
<path fill="none" stroke="#d85656" stroke-width="2" stroke-dasharray="5,2" d="M177,-108C177,-108 120,-108 120,-108 114,-108 108,-102 108,-96 108,-96 108,-84 108,-84 108,-78 114,-72 120,-72 120,-72 177,-72 177,-72 183,-72 189,-78 189,-84 189,-84 189,-96 189,-96 189,-102 183,-108 177,-108"/>
<text text-anchor="middle" x="148.5" y="-87.5" font-family="sans" font-size="10.00">samtools_sort</text>
</g>
<!-- 4&#45;&gt;3 -->
<g id="edge3" class="edge">
<title>4&#45;&gt;3</title>
<path fill="none" stroke="grey" stroke-width="2" d="M148.5,-71.34C148.5,-64.75 148.5,-57.08 148.5,-49.67"/>
<polygon fill="grey" stroke="grey" stroke-width="2" points="152,-49.93 148.5,-39.93 145,-49.93 152,-49.93"/>
</g>
<!-- 5 -->
<g id="node6" class="node">
<title>5</title>
<path fill="none" stroke="#afd856" stroke-width="2" stroke-dasharray="5,2" d="M167.5,-180C167.5,-180 129.5,-180 129.5,-180 123.5,-180 117.5,-174 117.5,-168 117.5,-168 117.5,-156 117.5,-156 117.5,-150 123.5,-144 129.5,-144 129.5,-144 167.5,-144 167.5,-144 173.5,-144 179.5,-150 179.5,-156 179.5,-156 179.5,-168 179.5,-168 179.5,-174 173.5,-180 167.5,-180"/>
<text text-anchor="middle" x="148.5" y="-165" font-family="sans" font-size="10.00">bwa_map</text>
<text text-anchor="middle" x="148.5" y="-154" font-family="sans" font-size="10.00">sample: B</text>
</g>
<!-- 5&#45;&gt;4 -->
<g id="edge4" class="edge">
<title>5&#45;&gt;4</title>
<path fill="none" stroke="grey" stroke-width="2" d="M148.5,-143.34C148.5,-136.75 148.5,-129.08 148.5,-121.67"/>
<polygon fill="grey" stroke="grey" stroke-width="2" points="152,-121.93 148.5,-111.93 145,-121.93 152,-121.93"/>
</g>
</g>
</svg>
